<svg xmlns="http://www.w3.org/2000/svg" viewBox="0 0 200 200">
  <defs>
    <linearGradient id="bgGradient" x1="0%" y1="0%" x2="100%" y2="100%">
      <stop offset="0%" style="stop-color:#1e6fb3;stop-opacity:1" />
      <stop offset="100%" style="stop-color:#1a5a99;stop-opacity:1" />
    </linearGradient>
  </defs>
  <!-- Background circle -->
  <circle cx="100" cy="100" r="100" fill="url(#bgGradient)"/>
  <!-- Outer ring -->
  <circle cx="100" cy="100" r="85" fill="none" stroke="white" stroke-width="8" opacity="0.9"/>
  <!-- Inner "e" shape -->
  <path d="M 70 80 Q 65 100 70 120 Q 75 135 90 140 Q 110 145 125 140 Q 140 135 140 120 L 130 120 Q 130 128 120 130 Q 105 133 95 130 Q 80 125 75 110 L 135 110 Q 135 90 125 80 Q 110 70 95 70 Q 75 70 70 80 M 75 95 L 130 95 Q 128 85 120 80 Q 110 75 95 75 Q 80 75 75 85 Z" fill="white" opacity="0.95"/>
</svg>